<svg xmlns="http://www.w3.org/2000/svg" version="1.1" xmlns:xlink="http://www.w3.org/1999/xlink" viewBox="0 0 700 700" style="overflow: hidden; display: block;" width="700" height="700"><defs><linearGradient id="two-55" x1="350" y1="-350" x2="350" y2="350" spreadMethod="pad" gradientUnits="userSpaceOnUse"><stop offset="0%" stop-color="hsl(1.4, 100%, 67%)" stop-opacity="1"></stop><stop offset="100%" stop-color="hsl(167, 52%, 78%)" stop-opacity="1"></stop></linearGradient></defs><g id="two-0" transform="matrix(1 0 0 1 0 0)" opacity="1"><path transform="matrix(1 0 0 1 350 350)" id="two-89" d="M 249.780243 73.342096 C 263.158426 102.658199 267.722107 137.847576 264.364115 169.8965 C 260.898478 202.972802 259.997306 252.251592 228.984397 264.262081 C 180.121797 283.18529 139.946958 188.770841 87.642181 191.909609 C 65.895957 193.214582 54.015925 234.148996 32.896831 228.80249 C -2.72508 219.784454 10.636924 152.246095 -18.710314 130.133087 C -28.72672 122.585771 -43.464556 123.793285 -55.937872 122.486852 C -72.326061 120.770382 -89.459573 120.68866 -105.869762 122.180217 C -145.848403 125.813962 -187.362049 157.717944 -225.38614 144.846876 C -251.525348 135.998814 -264.517017 104.555057 -281.189417 82.564662 C -300.70212 56.827993 -324.923931 31.070258 -333.742134 0 C -342.536908 -30.987709 -353.925314 -73.63759 -332.40067 -97.601643 C -298.674095 -135.150486 -213.275534 -77.603361 -180.572292 -116.046766 C -159.850971 -140.405149 -191.772685 -181.744886 -184.459058 -212.877101 C -176.9878 -244.680312 -169.468331 -297.70587 -136.85899 -299.679386 C -70.610552 -303.688738 -77.302738 -169.065579 -19.594544 -136.283041 C -8.445649 -129.949641 7.307484 -128.001811 19.120718 -132.987521 C 64.097173 -151.969584 66.485283 -262.290897 112.960279 -247.34851 C 147.217099 -236.334445 91.287289 -160.169168 120.042745 -138.536714 C 159.189474 -109.087003 219.968358 -189.515707 265.043678 -170.33323 C 292.968135 -158.449559 319.008487 -121.716323 313.12982 -91.943211 C 303.163049 -41.465479 193.209059 -51.101152 187.208207 -0.000001 C 183.497719 31.597215 236.572287 44.39902 249.780243 73.342096 Z " fill="#500472" stroke="undefined" stroke-width="1" stroke-opacity="1" fill-opacity="1" visibility="visible" stroke-linecap="butt" stroke-linejoin="miter" stroke-miterlimit="4"></path></g></svg>