<svg width="1920" height="1080" viewBox="0 0 1920 1080" fill="none" xmlns="http://www.w3.org/2000/svg">
<g clip-path="url(#clip0_20_48)">
<rect width="1080" height="1920" transform="translate(1920) rotate(90)" fill="#D39ED5"/>
<path d="M1530.07 561.616L1140.76 -63.3002L1876.61 -88.0007L1530.07 561.616Z" fill="#FF9FB6"/>
<path d="M502.861 226.94L199.106 582.658L42.9232 141.74L502.861 226.94Z" stroke="#D9D9D9" stroke-width="15"/>
<path d="M1771.5 415C1626.51 415 1509 297.681 1509 153C1509 8.31869 1626.51 -109 1771.5 -109C1916.49 -109 2034 8.31871 2034 153C2034 297.681 1916.49 415 1771.5 415Z" stroke="#D9D9D9" stroke-width="20"/>
<path d="M338 1333C169.001 1333 32 1196 32 1027C32 858.001 169.001 721 338 721C506.999 721 644 858.001 644 1027C644 1196 506.999 1333 338 1333Z" fill="#D9D9D9"/>
<path d="M338 1333C169.001 1333 32 1196 32 1027C32 858.001 169.001 721 338 721C506.999 721 644 858.001 644 1027C644 1196 506.999 1333 338 1333Z" stroke="#D9D9D9"/>
<path d="M32.4995 950C-129.32 950 -260.501 818.819 -260.501 657C-260.5 495.181 -129.32 364 32.4995 364C194.319 364 325.5 495.181 325.499 657C325.499 818.819 194.319 950 32.4995 950Z" fill="#FF9FB6"/>
<path d="M32.4995 950C-129.32 950 -260.501 818.819 -260.501 657C-260.5 495.181 -129.32 364 32.4995 364C194.319 364 325.5 495.181 325.499 657C325.499 818.819 194.319 950 32.4995 950Z" stroke="#FF9FB6"/>
<path d="M2429.95 677.553L2153.06 2177.02L992.93 1187.49L2429.95 677.553Z" fill="#D9D9D9" stroke="#FF9FB6"/>
</g>
<defs>
<clipPath id="clip0_20_48">
<rect width="1080" height="1920" fill="white" transform="translate(1920) rotate(90)"/>
</clipPath>
</defs>
</svg>
