<svg width="1080" height="1920" viewBox="0 0 1080 1920" fill="none" xmlns="http://www.w3.org/2000/svg">
<g clip-path="url(#clip0_20_32)">
<rect width="1080" height="1920" fill="#D39ED5"/>
<path d="M561.616 389.926L-63.2996 779.243L-88.0002 43.3913L561.616 389.926Z" fill="#FF9FB6"/>
<path d="M226.941 1417.14L582.659 1720.89L141.741 1877.08L226.941 1417.14Z" stroke="#D9D9D9" stroke-width="15"/>
<path d="M415 148.5C415 293.492 297.681 411 153 411C8.31871 411 -109 293.492 -109 148.5C-109 3.50793 8.31871 -114 153 -114C297.681 -114 415 3.50793 415 148.5Z" stroke="#D9D9D9" stroke-width="20"/>
<path d="M1333 1582C1333 1751 1196 1888 1027 1888C858.001 1888 721 1751 721 1582C721 1413 858.001 1276 1027 1276C1196 1276 1333 1413 1333 1582Z" fill="#D9D9D9"/>
<path d="M1333 1582C1333 1751 1196 1888 1027 1888C858.001 1888 721 1751 721 1582C721 1413 858.001 1276 1027 1276C1196 1276 1333 1413 1333 1582Z" stroke="#D9D9D9"/>
<path d="M950 1887.5C950 2049.32 818.819 2180.5 657 2180.5C495.181 2180.5 364 2049.32 364 1887.5C364 1725.68 495.181 1594.5 657 1594.5C818.819 1594.5 950 1725.68 950 1887.5Z" fill="#FF9FB6"/>
<path d="M950 1887.5C950 2049.32 818.819 2180.5 657 2180.5C495.181 2180.5 364 2049.32 364 1887.5C364 1725.68 495.181 1594.5 657 1594.5C818.819 1594.5 950 1725.68 950 1887.5Z" stroke="#FF9FB6"/>
<path d="M677.553 -509.952L2177.02 -233.058L1187.49 927.07L677.553 -509.952Z" fill="#D9D9D9" stroke="#FF9FB6"/>
</g>
<defs>
<clipPath id="clip0_20_32">
<rect width="1080" height="1920" fill="white"/>
</clipPath>
</defs>
</svg>
