<svg xmlns="http://www.w3.org/2000/svg" version="1.1" xmlns:xlink="http://www.w3.org/1999/xlink" viewBox="0 0 700 700" style="overflow: hidden; display: block;" width="700" height="700"><defs></defs><g id="two-0" transform="matrix(1 0 0 1 0 0)" opacity="1"><path transform="matrix(1 0 0 1 350 350)" id="two-54" d="M 327.922364 96.286693 C 314.223159 148.467785 196.803558 62.486555 164.71991 105.859058 C 141.074445 137.824344 224.572137 198.540927 193.175642 222.936575 C 157.592623 250.585229 112.720687 138.447968 72.568389 158.902608 C 20.777311 185.28635 104.990702 322.278116 47.921805 333.30348 C -1.899849 342.928721 20.646509 211.595562 -28.758688 200.021065 C -63.532526 191.874358 -85.512005 273.084464 -118.78237 260.097108 C -149.183677 248.229711 -144.69004 196.521707 -142.097588 163.989357 C -139.270005 128.50639 -79.786915 93.5436 -100.387473 64.515111 C -129.167849 23.960342 -215.433834 108.598038 -250.805492 73.643136 C -268.111865 56.54067 -256.725445 22.394153 -247.211939 0 C -237.137029 -23.715659 -213.733518 -40.650322 -193.721642 -56.881807 C -177.50957 -70.031298 -147.027116 -70.230788 -139.689699 -89.773119 C -126.025061 -126.167249 -184.022097 -164.271266 -175.135114 -202.116696 C -169.025359 -228.135228 -141.268976 -245.752406 -118.93582 -260.433118 C -96.16182 -275.403619 -67.38425 -280.580078 -41.618366 -289.462094 C -13.105897 -299.290913 15.722859 -321.271456 45.561221 -316.885256 C 75.43096 -312.494445 104.646791 -290.701323 121.240534 -265.47974 C 140.223752 -236.626287 136.117311 -196.890975 140.977282 -162.696458 C 144.150041 -140.373082 134.921028 -113.509685 147.298644 -94.663092 C 159.918473 -75.447697 201.450446 -83.105278 208.393096 -61.189735 C 215.185245 -39.74927 172.35293 -21.667535 178.38159 -0.000001 C 194.114458 56.545315 342.826165 39.517225 327.922364 96.286693 Z " fill="#6d6192" stroke="undefined" stroke-width="1" stroke-opacity="1" fill-opacity="1" visibility="visible" stroke-linecap="butt" stroke-linejoin="miter" stroke-miterlimit="4"></path></g></svg>