<svg xmlns="http://www.w3.org/2000/svg" version="1.1" xmlns:xlink="http://www.w3.org/1999/xlink" viewBox="0 0 700 700" style="overflow: hidden; display: block;" width="700" height="700"><defs><linearGradient id="two-55" x1="350" y1="-350" x2="350" y2="350" spreadMethod="pad" gradientUnits="userSpaceOnUse"><stop offset="0%" stop-color="hsl(1.4, 100%, 67%)" stop-opacity="1"></stop><stop offset="100%" stop-color="hsl(167, 52%, 78%)" stop-opacity="1"></stop></linearGradient></defs><g id="two-0" transform="matrix(1 0 0 1 0 0)" opacity="1"><path transform="matrix(1 0 0 1 350 350)" id="two-91" d="M 268.670038 78.888641 C 263.468908 112.395689 298.213332 151.398918 281.406147 180.848749 C 265.246829 209.163375 223.349402 221.506889 190.775701 220.166895 C 146.108663 218.329414 112.454411 173.793597 71.34602 156.225992 C 54.968118 149.226922 36.591956 132.845065 20.049155 139.444942 C -15.176222 153.498376 -9.014618 212.545057 -34.586233 240.552532 C -63.445769 272.161124 -99.936798 315.380604 -142.628269 312.312342 C -174.470955 310.02379 -208.545331 279.133818 -214.732261 247.814239 C -226.06068 190.467335 -106.909436 138.178582 -137.531126 88.385887 C -164.24019 44.955358 -258.456725 124.130374 -292.011919 85.742435 C -310.76181 64.292114 -283.414298 28.451253 -281.930782 0 C -280.502777 -27.386679 -301.196442 -62.579982 -282.998371 -83.09582 C -253.985776 -115.803557 -186.255733 -70.998353 -151.264609 -97.211862 C -136.294881 -108.426394 -138.872242 -133.339256 -129.629754 -149.600711 C -119.265288 -167.8362 -101.61208 -182.091516 -91.567674 -200.505237 C -71.079399 -238.064986 -88.843338 -317.498857 -46.29573 -321.993871 C -0.154734 -326.868515 -7.16272 -232.172374 29.246282 -203.412364 C 44.306799 -191.515838 65.075143 -182.760457 84.199743 -184.371721 C 138.200295 -188.921315 189.085596 -300.862743 228.184595 -263.339062 C 273.716981 -219.641199 116.961648 -149.423378 143.193344 -92.024775 C 156.01887 -63.960741 206.783557 -83.675116 233.721062 -68.626697 C 262.240502 -52.694542 299.015958 -32.102763 305.066132 -0.000001 C 310.375944 28.174336 273.067723 50.557602 268.670038 78.888641 Z " fill="#6d6192" stroke="undefined" stroke-width="1" stroke-opacity="1" fill-opacity="1" visibility="visible" stroke-linecap="butt" stroke-linejoin="miter" stroke-miterlimit="4"></path></g></svg>